<?xml version="1.0" encoding="utf-8"?>
<!-- Generator: Adobe Illustrator 21.0.0, SVG Export Plug-In . SVG Version: 6.00 Build 0)  -->
<svg version="1.1" id="Layer_1" xmlns="http://www.w3.org/2000/svg" xmlns:xlink="http://www.w3.org/1999/xlink" x="0px" y="0px"
	 viewBox="0 0 494.8 304" style="enable-background:new 0 0 494.8 304;" xml:space="preserve">
<style type="text/css">
	.st0{opacity:0.42;fill:#757575;}
	.st1{fill:#E0E0E0;}
	.st2{opacity:0.28;}
	.st3{fill:#407BFF;}
	.st4{opacity:0.6;fill:#FFFFFF;}
	.st5{opacity:0.2;}
	.st6{opacity:0.4;}
	.st7{opacity:0.3;}
	.st8{opacity:0.5;fill:#FFFFFF;}
	.st9{fill:#E4897B;}
	.st10{fill:#263238;}
	.st11{fill:#DE5753;}
	.st12{opacity:0.6;}
	.st13{fill:#CE6F64;}
	.st14{opacity:0.1;}
	.st15{opacity:0.4;fill:#FFFFFF;}
</style>
<title>mail-success</title>
<rect x="67.9" y="249.3" class="st0" width="364.1" height="0.2"/>
<rect x="317.9" y="257" class="st1" width="25.1" height="0.2"/>
<rect x="-293.3" y="257.1" class="st1" width="19.4" height="0.3"/>
<rect x="222.1" y="256.7" class="st1" width="28.6" height="0.2"/>
<rect x="208.6" y="254.1" class="st1" width="12.8" height="0.2"/>
<rect x="338.5" y="254.2" class="st1" width="38.6" height="0.2"/>
<g class="st2">
	<g>
		<path class="st3" d="M387.8,158.1c-9-13.6-0.8-28.3-2.1-43.5c-1.4-15.2-15.8-18.5-13.1-31.3c3.2-14.9-5.3-29.2-14.8-29.2
			c-9.5,0-18,14.3-14.8,29.2c2.7,12.9-11.7,16.2-13.1,31.3c-1.4,15.2,6.8,29.8-2.1,43.5c-9,13.6-6.6,31.7-1.6,40.7
			c1.4,2.5,3,4.7,4.8,6.6c14.3,15.5,39.2,15.5,53.5,0c1.8-1.9,3.4-4.1,4.8-6.6C394.4,189.8,396.8,171.8,387.8,158.1z"/>
		<path class="st3" d="M362.3,249.3h-9.1v-76.7c0-2.2,1.8-4.1,4.1-4.1h0.9c2.2,0,4.1,1.8,4.1,4.1V249.3z"/>
	</g>
	<g>
		<path class="st3" d="M300.8,249.3h-12.3V173c0-3.4,2.8-6.2,6.2-6.2l0,0c3.4,0,6.2,2.8,6.2,6.2V249.3z"/>
		<circle class="st3" cx="294.7" cy="190.7" r="38"/>
		<circle class="st3" cx="324.8" cy="175.7" r="15"/>
		<circle class="st3" cx="264" cy="166.8" r="8.9"/>
		<circle class="st3" cx="273.6" cy="162.3" r="6.2"/>
	</g>
	<path class="st3" d="M216.4,203.8c-6.3,0.9-11.8,3.2-16.5,6.3c0-5.8-1.1-11.2-3.8-15.7c-4.1,4-7.5,9.2-10.2,14.8
		c-1-10.5-3.8-20.7-9.9-27.1c-9.2,5.8-13.9,15.4-16.1,25.5c-3.6-6.5-8.7-12.5-15.6-16.9c-5.6,5.9-7.4,14.1-7.2,22.4
		c-6.4-7.4-13.4-13.2-20.3-13.9c-1.7,11.7,1.9,22.8,6.5,31.5c6,11.4,18,18.5,30.9,18.5h29.9c12.8,0,24.7-6.8,30.7-18.1
		C218.5,224.1,220.3,214.9,216.4,203.8z"/>
	<path class="st3" d="M207.9,52.5c3.7-10.8,0.8-18.5-8.3-18.5c-5.7,0-12.7,3-19.5,8c-0.8-2.8-3-4.5-6.5-4.5
		c-6.2,0-14.7,5.2-21.3,12.6c-1.6-1.6-3.9-2.6-6.9-2.8c-5.9-0.3-13,2.7-19.3,7.5c-0.5-0.8-1.5-1.3-2.7-1.4c-3.4-0.2-8,2.8-10.3,6.8
		c-0.1,0.2-0.3,0.5-0.4,0.7h7.1h5.6h19.5h9.6h7.5h11.5h2.1h28.5h5.6C210,57.3,209.4,54.5,207.9,52.5z"/>
	<path class="st3" d="M208.2,118.2c1.8-5.3,0.4-9.1-4-9.1c-2.8,0-6.2,1.5-9.5,3.9c-0.4-1.4-1.4-2.2-3.2-2.2c-3,0-7.2,2.5-10.4,6.1
		c-0.8-0.8-1.9-1.3-3.4-1.4c-2.9-0.2-6.4,1.3-9.4,3.7c-0.3-0.4-0.7-0.6-1.3-0.7c-1.7-0.1-3.9,1.4-5,3.3c-0.1,0.1-0.1,0.2-0.2,0.4
		h3.4h2.7h9.5h4.7h3.6h5.6h1h13.9h2.7C209.2,120.6,208.9,119.2,208.2,118.2z"/>
	<path class="st3" d="M317.5,78.2c-0.4-0.1-0.7-0.1-1.1-0.1c0.3-5.3-1.7-8.7-6-8.7c-3.1,0-6.9,1.8-10.8,4.7
		c1.1-10.3-2.5-16.9-10.5-16.9c-6.5,0-14.8,4.3-22.9,11.4c-0.7-4-3.1-6.4-7.1-6.4c-7.1,0-17.2,7.5-25.2,18c0,0,0,0,0,0
		c-1.7-2.3-4.4-3.8-7.8-4c-6.7-0.5-15.1,3.8-22.6,10.8c-0.6-1.2-1.6-1.9-3.1-2c-3.7-0.3-8.8,3.6-11.7,8.7h8.6h5.8h22.4h10.5h9.4
		h13.3h25.1h9.8h3.5h13.9h12.5C326.6,85.9,324.1,79.1,317.5,78.2z"/>
</g>
<ellipse class="st3" cx="249.9" cy="273.9" rx="141.2" ry="8.2"/>
<g>
	<g>
		<g>
			<polygon class="st3" points="103.4,80.4 269.5,104.3 291.7,126.8 			"/>
			<polygon class="st4" points="103.4,80.4 269.5,104.3 291.7,126.8 			"/>
		</g>
		<g>
			<polygon class="st3" points="103.4,80.4 269.5,104.3 261.8,136.9 			"/>
			<polygon class="st5" points="103.4,80.4 269.5,104.3 261.8,136.9 			"/>
		</g>
		<g>
			<g>
				<path class="st3" d="M258.4,42.8L268,88c0.5,2.4-1.1,4.9-3.5,5.4l-86,18.4c-2.4,0.5-4.9-1.1-5.4-3.5L163.5,63
					c-0.3-1.3,0-2.6,0.7-3.6c0.6-0.9,1.6-1.6,2.8-1.8l86-18.4c1.2-0.2,2.3,0,3.3,0.5C257.3,40.5,258.1,41.5,258.4,42.8z"/>
				<path class="st6" d="M258.4,42.8L268,88c0.5,2.4-1.1,4.9-3.5,5.4l-86,18.4c-2.4,0.5-4.9-1.1-5.4-3.5L163.5,63
					c-0.3-1.3,0-2.6,0.7-3.6c0.6-0.9,1.6-1.6,2.8-1.8l86-18.4c1.2-0.2,2.3,0,3.3,0.5C257.3,40.5,258.1,41.5,258.4,42.8z"/>
			</g>
			<path class="st3" d="M256.2,39.8l-28.7,35.3c-5.5,6.7-14.9,8.8-22.7,4.8l-40.6-20.5c0.6-0.9,1.6-1.6,2.8-1.8l86-18.4
				C254.1,39,255.3,39.3,256.2,39.8z"/>
		</g>
		<g>
			<polygon class="st3" points="103.4,80.4 240.4,113 261.8,136.9 			"/>
			<polygon class="st4" points="103.4,80.4 240.4,113 261.8,136.9 			"/>
		</g>
		
			<rect x="160.5" y="107.8" transform="matrix(0.5055 -0.8628 0.8628 0.5055 -21.0624 196.4266)" class="st3" width="0.7" height="17.7"/>
		
			<rect x="177.6" y="123.4" transform="matrix(0.5055 -0.8628 0.8628 0.5055 -21.2516 216.1197)" class="st3" width="0.7" height="6.4"/>
		<polygon class="st3" points="103.4,80.4 240.4,113 213.8,145.1 		"/>
	</g>
	<g>
		<g>
			<path class="st3" d="M286.6,156.7c-0.2,0-0.4,0-0.5-0.1l-22.3-8.8c-0.7-0.3-1.1-1.1-0.8-1.9c0.3-0.7,1.1-1.1,1.9-0.8l22.3,8.8
				c0.7,0.3,1.1,1.1,0.8,1.9C287.7,156.3,287.2,156.7,286.6,156.7z"/>
			<path class="st7" d="M286.6,156.7c-0.2,0-0.4,0-0.5-0.1l-22.3-8.8c-0.7-0.3-1.1-1.1-0.8-1.9c0.3-0.7,1.1-1.1,1.9-0.8l22.3,8.8
				c0.7,0.3,1.1,1.1,0.8,1.9C287.7,156.3,287.2,156.7,286.6,156.7z"/>
		</g>
		<g>
			<path class="st3" d="M285.3,143.9c-0.2,0-0.4,0-0.5-0.1l-12-4.7c-0.7-0.3-1.1-1.1-0.8-1.9c0.3-0.7,1.1-1.1,1.9-0.8l12,4.7
				c0.7,0.3,1.1,1.1,0.8,1.9C286.4,143.5,285.9,143.9,285.3,143.9z"/>
			<path class="st8" d="M285.3,143.9c-0.2,0-0.4,0-0.5-0.1l-12-4.7c-0.7-0.3-1.1-1.1-0.8-1.9c0.3-0.7,1.1-1.1,1.9-0.8l12,4.7
				c0.7,0.3,1.1,1.1,0.8,1.9C286.4,143.5,285.9,143.9,285.3,143.9z"/>
		</g>
		<g>
			<path class="st3" d="M260.2,156.5c-0.2,0-0.4,0-0.5-0.1l-21.8-8.6c-0.7-0.3-1.1-1.1-0.8-1.9c0.3-0.7,1.1-1.1,1.9-0.8l21.8,8.6
				c0.7,0.3,1.1,1.1,0.8,1.9C261.4,156.1,260.8,156.5,260.2,156.5z"/>
			<path class="st7" d="M260.2,156.5c-0.2,0-0.4,0-0.5-0.1l-21.8-8.6c-0.7-0.3-1.1-1.1-0.8-1.9c0.3-0.7,1.1-1.1,1.9-0.8l21.8,8.6
				c0.7,0.3,1.1,1.1,0.8,1.9C261.4,156.1,260.8,156.5,260.2,156.5z"/>
		</g>
	</g>
</g>
<path class="st9" d="M339,90.8c1.9,3.8,3.7,7.5,5.4,11.4c1.7,3.9,3.3,7.8,4.6,11.9l0.5,1.6c0.1,0.3,0.2,0.7,0.3,1.1
	c0.1,0.3,0.1,0.7,0.2,1c0.2,1.3,0.2,2.4,0.2,3.5c0,2.2-0.1,4.4-0.3,6.5c-0.4,4.3-1.1,8.4-2,12.5l-4-0.4c-0.1-4.1-0.1-8.2-0.2-12.3
	c-0.1-2-0.2-4-0.4-5.9c-0.1-0.9-0.3-1.9-0.4-2.6c0-0.2-0.1-0.4-0.1-0.5c-0.1-0.2-0.1-0.2-0.2-0.4l-0.5-1.4c-1.5-3.7-3.2-7.4-5-11.1
	l-5.3-11.1L339,90.8z"/>
<path class="st9" d="M344,138.6l-1.9,3.5l6,1.7c0,0,1.1-2.8-0.2-5L344,138.6z"/>
<polygon class="st9" points="339.8,147.1 345.3,147.5 348.1,143.7 342.1,142.1 "/>
<ellipse transform="matrix(0.1992 -0.98 0.98 0.1992 186.7553 359.6415)" class="st10" cx="313.4" cy="65.6" rx="0.8" ry="0.5"/>
<path class="st11" d="M313.6,66.4c0,0-1.5,2.2-2.8,3.2c0.6,0.9,1.9,0.8,1.9,0.8L313.6,66.4z"/>
<path class="st10" d="M316,63.6c-0.1,0-0.1,0-0.2-0.1c-0.8-0.8-1.7-0.7-1.7-0.7c-0.1,0-0.3-0.1-0.3-0.2c0-0.1,0.1-0.3,0.2-0.3
	c0,0,1.2-0.2,2.2,0.8c0.1,0.1,0.1,0.3,0,0.4C316.1,63.6,316,63.6,316,63.6z"/>
<path class="st9" d="M326,71.6c-0.8,3.9-1.5,11.1,1.2,13.7c0,0-1.1,4-8.3,4c-8,0-3.8-4-3.8-4c4.4-1,4.3-4.3,3.5-7.3L326,71.6z"/>
<path class="st10" d="M328.3,87.8c0.6-1.9,1.2-4.1-0.1-4.8c-1.4-0.8-9.4-1.5-12.1-0.1c-2.7,1.4-2,5.3-2,5.3L328.3,87.8z"/>
<path class="st3" d="M345.1,269.4c-0.5,0-1.1-0.1-1.3-0.4c-0.1-0.1-0.2-0.3,0-0.6c0.1-0.2,0.2-0.3,0.4-0.3c0.8-0.2,2.3,0.8,2.3,0.9
	c0,0,0.1,0.1,0.1,0.1c0,0,0,0.1-0.1,0.1C346.2,269.3,345.6,269.4,345.1,269.4z M344.4,268.4c-0.1,0-0.1,0-0.2,0
	c-0.1,0-0.2,0.1-0.2,0.2c-0.1,0.2,0,0.3,0,0.3c0.2,0.3,1.3,0.3,2.1,0.2C345.7,268.8,344.9,268.4,344.4,268.4z"/>
<path class="st3" d="M346.4,269.2C346.4,269.2,346.4,269.2,346.4,269.2c-0.6-0.3-1.7-1.5-1.6-2.1c0-0.1,0.1-0.3,0.4-0.3
	c0.2,0,0.4,0,0.5,0.2c0.6,0.5,0.7,2.1,0.8,2.1C346.6,269.2,346.5,269.2,346.4,269.2C346.5,269.2,346.5,269.2,346.4,269.2z
	 M345.4,267.1C345.3,267.1,345.3,267.1,345.4,267.1c-0.2,0-0.2,0.1-0.2,0.1c-0.1,0.4,0.6,1.2,1.2,1.7c-0.1-0.5-0.2-1.4-0.6-1.7
	C345.6,267.1,345.5,267.1,345.4,267.1z"/>
<path class="st3" d="M312.9,269.4c-0.7,0-1.3-0.1-1.6-0.4c-0.1-0.1-0.1-0.3,0-0.6c0.1-0.1,0.2-0.2,0.4-0.3c0.9-0.2,2.8,0.8,2.8,0.9
	c0,0,0.1,0.1,0.1,0.1c0,0.1,0,0.1-0.1,0.1C314.2,269.3,313.6,269.4,312.9,269.4z M312.1,268.4c-0.1,0-0.2,0-0.2,0
	c-0.1,0-0.2,0.1-0.2,0.2c-0.1,0.2-0.1,0.2,0,0.3c0.2,0.3,1.6,0.4,2.6,0.2C313.7,268.8,312.7,268.4,312.1,268.4z"/>
<path class="st3" d="M314.6,269.2C314.5,269.2,314.5,269.2,314.6,269.2c-0.7-0.3-2-1.5-1.9-2.1c0-0.1,0.1-0.3,0.5-0.4
	c0.3,0,0.5,0,0.7,0.2c0.7,0.6,0.8,2,0.8,2.1C314.7,269.2,314.7,269.2,314.6,269.2C314.6,269.2,314.6,269.2,314.6,269.2z
	 M313.3,267.1C313.2,267.1,313.2,267.1,313.3,267.1c-0.3,0-0.3,0.1-0.3,0.1c-0.1,0.4,0.8,1.3,1.5,1.7c-0.1-0.4-0.3-1.3-0.7-1.7
	C313.6,267.1,313.4,267.1,313.3,267.1z"/>
<polygon class="st9" points="320.4,269.1 315.1,269.1 314.6,256.7 319.9,256.7 "/>
<polygon class="st9" points="352.6,269.1 347.2,269.1 344.5,256.7 349.9,256.7 "/>
<path class="st10" d="M346.8,268.5h6c0.2,0,0.4,0.2,0.5,0.4l1.1,4.8c0.1,0.5-0.3,1-0.8,1c-2.1,0-3.1-0.2-5.8-0.2
	c-1.6,0-5,0.2-7.2,0.2c-2.2,0-2.5-2.2-1.6-2.4c4.1-0.9,5.7-2.1,7-3.3C346.2,268.6,346.5,268.5,346.8,268.5z"/>
<path class="st10" d="M315.1,268.5h5.8c0.2,0,0.4,0.2,0.5,0.4l1.1,4.8c0.1,0.5-0.3,1-0.8,1c-2.1,0-5.2-0.2-7.8-0.2
	c-3.1,0-5.8,0.2-9.4,0.2c-2.2,0-2.8-2.2-1.9-2.4c4.2-0.9,7.6-1,11.2-3.2C314.2,268.7,314.7,268.5,315.1,268.5z"/>
<path class="st9" d="M312.5,94.7c-4.5-0.4-8.9-0.9-13.3-1.8c-2.2-0.4-4.4-0.9-6.6-1.5c-2.2-0.6-4.4-1.3-6.7-2.2
	c-0.6-0.2-1.1-0.5-1.7-0.8c-0.7-0.4-1.3-0.7-1.8-1.1c-1.1-0.7-2-1.4-2.8-2.1c-1.8-1.4-3.4-2.9-5.1-4.4c-3.3-3-6.3-6.1-9.3-9.4l2.7-3
	l10.6,7.6c1.7,1.3,3.5,2.5,5.2,3.6c0.9,0.6,1.7,1.1,2.5,1.6c0.4,0.2,0.8,0.4,1,0.5c0.4,0.2,0.9,0.3,1.3,0.5c3.7,1.2,7.9,2,12,2.7
	c4.2,0.7,8.5,1.2,12.6,1.6L312.5,94.7z"/>
<g>
	<path class="st3" d="M336.8,86.5c5,1.1,10.1,15.8,10.1,15.8l-10.3,7.4c0,0-2.9-6.8-5.7-12.8C327.8,90.7,331.6,85.3,336.8,86.5z"/>
	<path class="st6" d="M336.8,86.5c5,1.1,10.1,15.8,10.1,15.8l-10.3,7.4c0,0-2.9-6.8-5.7-12.8C327.8,90.7,331.6,85.3,336.8,86.5z"/>
</g>
<g>
	<path class="st3" d="M333.9,94.5l-2,4.6c2.1,4.6,4.1,9.1,4.6,10.3C336.3,104,335.3,97.3,333.9,94.5z"/>
	<path class="st12" d="M333.9,94.5l-2,4.6c2.1,4.6,4.1,9.1,4.6,10.3C336.3,104,335.3,97.3,333.9,94.5z"/>
</g>
<g>
	<path class="st3" d="M306.8,86.8c0,0-5.7,6.4-0.3,46.2c8.6,0,24.4,0,28.6,0c0.2-4.4-2.6-25.8,1.7-46.5c0,0-4.9-1-9.6-1.2
		c-3.7-0.2-9-0.3-12.2,0C310.8,85.7,306.8,86.8,306.8,86.8z"/>
	<path class="st6" d="M306.8,86.8c0,0-5.7,6.4-0.3,46.2c8.6,0,24.4,0,28.6,0c0.2-4.4-2.6-25.8,1.7-46.5c0,0-4.9-1-9.6-1.2
		c-3.7-0.2-9-0.3-12.2,0C310.8,85.7,306.8,86.8,306.8,86.8z"/>
</g>
<g>
	<path class="st3" d="M304.7,94.5c-0.2,1.5-0.3,3.3-0.4,5.4c2.4-0.7,5.3-1.9,8-3.7L304.7,94.5z"/>
	<path class="st12" d="M304.7,94.5c-0.2,1.5-0.3,3.3-0.4,5.4c2.4-0.7,5.3-1.9,8-3.7L304.7,94.5z"/>
</g>
<g>
	<path class="st3" d="M316.9,95.3c-3.8,3.4-18.5,3.1-18.5,3.1L298,84.2c0,0,8.3,1.2,14.9,1.1C321.1,85.1,321.1,91.6,316.9,95.3z"/>
	<path class="st6" d="M316.9,95.3c-3.8,3.4-18.5,3.1-18.5,3.1L298,84.2c0,0,8.3,1.2,14.9,1.1C321.1,85.1,321.1,91.6,316.9,95.3z"/>
</g>
<path class="st9" d="M268,68.5l-3.7-4.3l-3.9,4.3c0,0,2.4,4.1,6.3,3.4L268,68.5z"/>
<polygon class="st9" points="259.1,59.3 257.7,64.9 260.4,68.6 264.3,64.3 "/>
<g>
	<polygon class="st13" points="314.6,256.7 314.8,263.1 320.2,263.1 319.9,256.7 	"/>
	<polygon class="st13" points="349.9,256.7 344.5,256.7 345.9,263.1 351.3,263.1 	"/>
</g>
<path class="st10" d="M317.8,60.3c-4.8-2.2-6.3-11.9,7.5-9.5c0,0-2.1,2.3,2.1,3.8C331.6,56.1,328.1,65.1,317.8,60.3z"/>
<path class="st9" d="M328.2,67.6c-1.4,5.1-1.9,8.2-5.1,10.3c-4.8,3.2-10.7-0.5-10.9-5.9c-0.2-4.9,2.1-12.5,7.6-13.5
	C325.3,57.5,329.6,62.5,328.2,67.6z"/>
<path class="st10" d="M325.1,53.4c3.3,1.8,7.7,2.9,7.3,5.5c-0.5,3.2,2.7,1.2,1.9,5.9c-0.5,3.1-6.2,12.4-10.2,12
	c-6-0.7-5.3-9.9-5.3-14.7C318.8,59.3,318.7,49.9,325.1,53.4z"/>
<path class="st10" d="M318.1,57.5c-1.5,0.3-3.4,8.7,2.3,9.5C326.9,67.9,318.1,57.5,318.1,57.5z"/>
<path class="st10" d="M318.3,60.5c-1.8,0.2-5.8-2-5.3-5.2C312.9,55.3,315.5,59.1,318.3,60.5z"/>
<path class="st9" d="M320.9,67.7c-0.6,1.3-1.6,2.3-2.6,2.8c-1.5,0.8-2.4-0.4-2.1-1.9c0.3-1.4,1.5-3.5,3.1-3.6
	C320.8,64.8,321.5,66.3,320.9,67.7z"/>
<path class="st10" d="M328.9,61.8c1.1-0.5,3.5-1.8,4.2-5.3C333.1,56.4,335.5,63.2,328.9,61.8z"/>
<path class="st10" d="M335,61.7c-0.5-0.3-1.8-1-3.5-0.3C331.5,61.4,333.7,58.5,335,61.7z"/>
<g>
	<path class="st3" d="M316.6,133c0,0,6.1,40.9,9.4,56.2c3.7,16.8,17.4,72.6,17.4,72.6h9.8c0,0-9.1-54.5-11.2-71.1
		c-2.3-18-7-57.7-7-57.7H316.6z"/>
	<path class="st8" d="M316.6,133c0,0,6.1,40.9,9.4,56.2c3.7,16.8,17.4,72.6,17.4,72.6h9.8c0,0-9.1-54.5-11.2-71.1
		c-2.3-18-7-57.7-7-57.7H316.6z"/>
</g>
<g>
	<path class="st3" d="M341.9,258.3c0,0,1,3.8,1,3.8h11l-0.2-3.4L341.9,258.3z"/>
	<path class="st14" d="M341.9,258.3c0,0,1,3.8,1,3.8h11l-0.2-3.4L341.9,258.3z"/>
</g>
<g>
	<path class="st3" d="M320.5,147.6c7,1.4,6.3,27.6,5.4,41c-2-9.5-5-27.8-7-40.8C319.3,147.6,319.9,147.5,320.5,147.6z"/>
	<path class="st15" d="M320.5,147.6c7,1.4,6.3,27.6,5.4,41c-2-9.5-5-27.8-7-40.8C319.3,147.6,319.9,147.5,320.5,147.6z"/>
</g>
<g>
	<path class="st3" d="M306.5,133c0,0-0.7,40-0.2,56.3c0.6,17,6.5,72.5,6.5,72.5h9.1c0,0,0.3-54.6,0.7-71.2
		c0.4-18.2,2.6-57.6,2.6-57.6H306.5z"/>
	<path class="st8" d="M306.5,133c0,0-0.7,40-0.2,56.3c0.6,17,6.5,72.5,6.5,72.5h9.1c0,0,0.3-54.6,0.7-71.2
		c0.4-18.2,2.6-57.6,2.6-57.6H306.5z"/>
</g>
<g>
	<path class="st3" d="M314.7,255.4C314.7,255.4,314.6,255.3,314.7,255.4c-1.7-15.5-5.5-52.7-5.9-66c-0.5-13.6,0-44.2,0.1-53.2
		c0,0,0-0.1,0.1-0.1c0,0,0,0,0,0c0.1,0,0.1,0,0.1,0.1c-0.1,9-0.6,39.6-0.1,53.2c0.5,13.3,4.2,50.6,5.8,65.9
		C314.8,255.3,314.8,255.4,314.7,255.4C314.7,255.4,314.7,255.4,314.7,255.4z"/>
	<path class="st15" d="M314.7,255.4C314.7,255.4,314.6,255.3,314.7,255.4c-1.7-15.5-5.5-52.7-5.9-66c-0.5-13.6,0-44.2,0.1-53.2
		c0,0,0-0.1,0.1-0.1c0,0,0,0,0,0c0.1,0,0.1,0,0.1,0.1c-0.1,9-0.6,39.6-0.1,53.2c0.5,13.3,4.2,50.6,5.8,65.9
		C314.8,255.3,314.8,255.4,314.7,255.4C314.7,255.4,314.7,255.4,314.7,255.4z"/>
</g>
<g>
	<path class="st3" d="M311.1,258.3c0,0,0.5,3.8,0.5,3.8h11l0.3-3.4L311.1,258.3z"/>
	<path class="st14" d="M311.1,258.3c0,0,0.5,3.8,0.5,3.8h11l0.3-3.4L311.1,258.3z"/>
</g>
</svg>
