<svg width="124" height="40" viewBox="0 0 124 40" fill="none" xmlns="http://www.w3.org/2000/svg">
<path d="M38.3518 11.3047L33.1505 6.10349L32.967 5.98111C32.661 5.67515 32.1715 5.67515 31.682 5.67515L23.7272 6.34825C17.3633 1.08584 9.4085 -1.17822 2.86109 0.596317C1.75965 0.779889 0.964173 1.69775 0.597028 2.86038C-1.17751 9.3466 1.08655 17.3626 6.28777 23.5429L5.49229 31.6812C5.49229 32.2932 5.73706 32.9051 6.16539 33.3334L11.183 38.4122C11.489 38.7182 12.1621 39.0853 12.6516 39.0853C12.8352 39.0853 12.9576 39.0853 13.3247 38.9018C13.9366 38.4734 14.6097 38.1063 14.7933 37.1272L15.5888 30.641C16.3843 30.947 17.2409 31.3753 18.0364 31.6201C18.4647 31.7424 18.7095 31.8036 19.0155 31.8036C19.8109 31.8036 20.6676 31.4977 21.2795 30.8246L30.7029 21.4012C31.4984 20.6057 31.8655 19.1371 31.4984 17.9745C31.1924 17.179 30.8253 16.3224 30.5193 15.5269L37.1891 14.7314C37.9846 14.5478 38.4741 14.0583 38.8413 13.2628C39.1472 12.6509 39.0249 11.9778 38.3518 11.3047ZM11.9785 34.4348L8.85779 31.3141L9.34731 26.6024C10.5099 27.5815 11.6114 28.3769 12.774 29.2336L11.9785 34.4348ZM19.1378 28.7441C15.8947 27.5815 12.6516 25.501 10.0204 22.8698C4.51324 17.3626 1.88203 9.71375 3.53419 3.65586C9.71446 2.0649 17.1797 4.51253 22.7481 10.2033C25.3793 12.8345 27.2762 15.894 28.6224 19.3207L19.1378 28.7441ZM29.0508 12.6509C28.2553 11.4883 27.3986 10.3868 26.4195 9.22422L31.1312 8.91827L34.252 12.039L29.0508 12.6509Z" fill="#2F80ED"/>
<path d="M34.4355 24.5219C33.946 24.216 33.1505 24.3383 32.661 24.7055C31.9879 25.195 28.9284 28.2546 28.4388 28.7441C24.2167 32.9662 24.2167 32.9662 24.5226 33.9453C24.5838 34.2513 24.7062 34.4348 25.0122 34.7408C27.1538 36.8825 30.2134 37.372 32.661 37.372C34.4355 37.372 35.7817 37.066 35.9041 37.066C36.5772 36.8825 37.0668 36.3929 37.1891 35.781C37.1891 35.4751 38.6577 28.4381 34.9251 24.8891C34.6191 24.6443 34.6191 24.6443 34.4355 24.5219ZM34.1296 34.1289C32.4774 34.3124 30.2134 34.3124 28.4388 33.4558C29.7239 31.9872 31.9879 29.9067 33.3341 28.5605C34.1296 30.2127 34.1296 32.4767 34.1296 34.1289Z" fill="#2F80ED"/>
<path d="M15.7112 10.2033C12.5904 10.2033 10.204 12.6509 10.204 15.7105C10.204 18.77 12.6516 21.2177 15.7112 21.2177C18.7707 21.2177 21.2183 18.77 21.2183 15.7105C21.2183 12.6509 18.8319 10.2033 15.7112 10.2033ZM15.7112 17.9745C14.4261 17.9745 13.4471 16.9955 13.4471 15.7105C13.4471 14.4255 14.4261 13.4464 15.7112 13.4464C16.9962 13.4464 17.9752 14.4255 17.9752 15.7105C18.0364 16.9955 17.0574 17.9745 15.7112 17.9745Z" fill="#2F80ED"/>
<path d="M49.029 8.19697H44.673V31H57.675L58.17 27.436H49.029V8.19697Z" fill="#2F80ED"/>
<path d="M63.2473 4.69897C61.6963 4.69897 60.6073 5.82098 60.6073 7.27297C60.6073 8.69197 61.6963 9.81398 63.2473 9.81398C64.8313 9.81398 65.9203 8.69197 65.9203 7.27297C65.9203 5.82098 64.8313 4.69897 63.2473 4.69897ZM65.3923 13.543H61.1683V31H65.3923V13.543Z" fill="#2F80ED"/>
<path d="M79.6589 13.048C77.4479 13.048 75.6989 14.071 74.3459 15.82L74.0159 13.543H70.3529V31H74.5769V18.856C75.5999 17.239 76.7219 16.216 78.2399 16.216C79.5599 16.216 80.3849 16.843 80.3849 19.021V31H84.6089V18.361C84.6089 15.028 82.7939 13.048 79.6589 13.048Z" fill="#2F80ED"/>
<path d="M99.7286 6.08497V14.929C98.6396 13.84 97.1876 13.048 95.3396 13.048C91.0166 13.048 88.3106 16.909 88.3106 22.288C88.3106 27.832 90.5876 31.495 94.9436 31.495C97.1876 31.495 98.8706 30.373 99.9266 28.789L100.224 31H103.953V6.54697L99.7286 6.08497ZM96.1316 28.294C94.0526 28.294 92.7656 26.743 92.7656 22.255C92.7656 18.064 94.2176 16.216 96.3956 16.216C97.8146 16.216 98.8046 16.942 99.7286 18.064V26.05C98.7386 27.535 97.6826 28.294 96.1316 28.294Z" fill="#2F80ED"/>
<path d="M123.086 13.543H118.73L114.77 28.195L110.975 13.543H106.487L112.031 31H113.483C112.493 33.475 111.371 34.597 107.906 35.125L108.335 38.194C113.516 37.798 116.09 35.158 117.41 31.066L123.086 13.543Z" fill="#2F80ED"/>
</svg>
