<svg id="Layer_1" data-name="Layer 1" xmlns="http://www.w3.org/2000/svg" viewBox="0 0 52.97 10.09"><defs><style>.cls-1{fill:#0c1928;}.cls-2{fill:#4b66af;}</style></defs><title>logo</title><path class="cls-1" d="M1,10.57,2,.67H4L6.41,6.86,8.78.67h2.06l1,9.9H9.88L9.27,4.16,7,10.32H5.81L3.56,4.16l-.62,6.41Z" transform="translate(-1 -0.67)"/><path class="cls-1" d="M16,10.76a2.9,2.9,0,0,1-1.54-.42,3,3,0,0,1-1.1-1.16A3.46,3.46,0,0,1,13,7.48a3.48,3.48,0,0,1,.39-1.66,3,3,0,0,1,1.08-1.16A2.91,2.91,0,0,1,16,4.23a3,3,0,0,1,1.22.25,2.42,2.42,0,0,1,.93.69V4.42H20v6.14H18.15V9.76a2.91,2.91,0,0,1-1,.74A2.73,2.73,0,0,1,16,10.76Zm.55-1.57A1.65,1.65,0,0,0,17.4,9a1.55,1.55,0,0,0,.58-.6,1.8,1.8,0,0,0,.21-.88A1.77,1.77,0,0,0,18,6.62,1.58,1.58,0,0,0,17.4,6,1.75,1.75,0,0,0,15.7,6a1.59,1.59,0,0,0-.59.6,1.9,1.9,0,0,0,0,1.75,1.57,1.57,0,0,0,.58.6A1.65,1.65,0,0,0,16.55,9.19Z" transform="translate(-1 -0.67)"/><path class="cls-1" d="M23.49,10.76a3.73,3.73,0,0,1-1.4-.25,2.59,2.59,0,0,1-1-.72l.77-1.24a3,3,0,0,0,.8.62,1.82,1.82,0,0,0,.84.22,1,1,0,0,0,.4-.08.63.63,0,0,0,.27-.23.62.62,0,0,0,.1-.36.52.52,0,0,0-.14-.38,1.27,1.27,0,0,0-.41-.25L23,7.81a6.26,6.26,0,0,1-.71-.35,1.71,1.71,0,0,1-.56-.5,1.33,1.33,0,0,1-.21-.77,1.66,1.66,0,0,1,.32-1,2.11,2.11,0,0,1,.88-.68A3.19,3.19,0,0,1,24,4.24a3.61,3.61,0,0,1,1,.14A6.09,6.09,0,0,1,26,4.8L25.41,6A2.64,2.64,0,0,0,24,5.49a.9.9,0,0,0-.55.15.45.45,0,0,0-.2.38.46.46,0,0,0,.21.38,2.25,2.25,0,0,0,.52.28l.59.23a5.25,5.25,0,0,1,.82.37A1.55,1.55,0,0,1,26,7.8a1.63,1.63,0,0,1,.2.87,1.94,1.94,0,0,1-.32,1.13,2,2,0,0,1-.92.71A3.83,3.83,0,0,1,23.49,10.76Z" transform="translate(-1 -0.67)"/><path class="cls-1" d="M29.27,10.76a3.73,3.73,0,0,1-1.4-.25,2.59,2.59,0,0,1-1-.72l.77-1.24a3,3,0,0,0,.8.62,1.82,1.82,0,0,0,.84.22,1,1,0,0,0,.4-.08.63.63,0,0,0,.27-.23.62.62,0,0,0,.1-.36.52.52,0,0,0-.14-.38,1.27,1.27,0,0,0-.41-.25l-.71-.3a6.26,6.26,0,0,1-.71-.35,1.71,1.71,0,0,1-.56-.5,1.33,1.33,0,0,1-.21-.77,1.66,1.66,0,0,1,.32-1,2.11,2.11,0,0,1,.88-.68,3.19,3.19,0,0,1,1.29-.25,3.61,3.61,0,0,1,1,.14,6.09,6.09,0,0,1,1.07.42L31.19,6a2.64,2.64,0,0,0-1.39-.5.9.9,0,0,0-.55.15.45.45,0,0,0-.2.38.46.46,0,0,0,.21.38,2.25,2.25,0,0,0,.52.28l.59.23a5.25,5.25,0,0,1,.82.37,1.55,1.55,0,0,1,.56.53,1.63,1.63,0,0,1,.2.87,1.94,1.94,0,0,1-.32,1.13,2,2,0,0,1-.92.71A3.83,3.83,0,0,1,29.27,10.76Z" transform="translate(-1 -0.67)"/><path class="cls-1" d="M34.24,3.15A1.06,1.06,0,0,1,33.69,3a1.12,1.12,0,0,1-.4-.4A1.06,1.06,0,0,1,33.14,2a1,1,0,0,1,.15-.55,1.13,1.13,0,0,1,.4-.39A1.06,1.06,0,0,1,34.24,1a1,1,0,0,1,.55.15,1.12,1.12,0,0,1,.39.39,1,1,0,0,1,.15.55,1.08,1.08,0,0,1-.15.55,1.11,1.11,0,0,1-.39.4A1,1,0,0,1,34.24,3.15Zm-.92,7.42V4.42h1.84v6.14Z" transform="translate(-1 -0.67)"/><path class="cls-1" d="M39,10.57,35.73,4.42H37.9l1.67,3.71,1.67-3.71h2.17l-3.23,6.14Z" transform="translate(-1 -0.67)"/><path class="cls-1" d="M47,10.76a3.68,3.68,0,0,1-1.79-.43,3.32,3.32,0,0,1-1.25-1.17,3.08,3.08,0,0,1-.46-1.67,3.15,3.15,0,0,1,.26-1.28,3.22,3.22,0,0,1,.73-1,3.39,3.39,0,0,1,1.09-.7,3.54,3.54,0,0,1,1.34-.25,3.43,3.43,0,0,1,1.68.4,2.88,2.88,0,0,1,1.13,1.11,3.27,3.27,0,0,1,.4,1.65c0,.05,0,.1,0,.14s0,.11,0,.21H45.38a1.53,1.53,0,0,0,.21.82,1.45,1.45,0,0,0,.6.54,1.94,1.94,0,0,0,.89.2,1.86,1.86,0,0,0,.85-.19,2.3,2.3,0,0,0,.71-.59L50,9.18a3,3,0,0,1-1.22,1.16A3.71,3.71,0,0,1,47,10.76Zm-1.54-4H48.3A1.38,1.38,0,0,0,48,6.1a1.28,1.28,0,0,0-.5-.4,1.6,1.6,0,0,0-.68-.14,1.7,1.7,0,0,0-.71.14,1.2,1.2,0,0,0-.49.4A1.28,1.28,0,0,0,45.44,6.72Z" transform="translate(-1 -0.67)"/><path class="cls-2" d="M52.78,10.76a1.17,1.17,0,0,1-.61-.16,1.2,1.2,0,0,1-.43-.43,1.23,1.23,0,0,1,0-1.21,1.2,1.2,0,0,1,.44-.43,1.18,1.18,0,0,1,.61-.16,1.15,1.15,0,0,1,.61.16,1.24,1.24,0,0,1,.43.43,1.21,1.21,0,0,1,0,1.21,1.23,1.23,0,0,1-.43.43A1.15,1.15,0,0,1,52.78,10.76Z" transform="translate(-1 -0.67)"/></svg>