<svg viewBox="0 0 52.99 10.09" xmlns="http://www.w3.org/2000/svg"><g fill="#fff"><path d="m0 9.9 1-9.9h2l2.41 6.19 2.37-6.19h2.06l1 9.9h-2l-.57-6.41-2.27 6.16h-1.19l-2.25-6.16-.62 6.41z"/><path d="m15 10.09a2.9 2.9 0 0 1 -1.54-.42 3 3 0 0 1 -1.1-1.16 3.46 3.46 0 0 1 -.36-1.7 3.48 3.48 0 0 1 .39-1.66 3 3 0 0 1 1.08-1.15 2.91 2.91 0 0 1 1.53-.44 3 3 0 0 1 1.22.25 2.42 2.42 0 0 1 .93.69v-.75h1.85v6.14h-1.85v-.8a2.91 2.91 0 0 1 -1 .74 2.73 2.73 0 0 1 -1.15.26zm.55-1.57a1.65 1.65 0 0 0 .85-.19 1.55 1.55 0 0 0 .58-.6 1.8 1.8 0 0 0 .21-.88 1.77 1.77 0 0 0 -.19-.9 1.58 1.58 0 0 0 -.6-.62 1.75 1.75 0 0 0 -1.7 0 1.59 1.59 0 0 0 -.59.6 1.9 1.9 0 0 0 0 1.75 1.57 1.57 0 0 0 .58.6 1.65 1.65 0 0 0 .86.24z"/><path d="m22.49 10.09a3.73 3.73 0 0 1 -1.4-.25 2.59 2.59 0 0 1 -1-.72l.77-1.24a3 3 0 0 0 .8.62 1.82 1.82 0 0 0 .84.22 1 1 0 0 0 .4-.08.63.63 0 0 0 .27-.23.62.62 0 0 0 .1-.36.52.52 0 0 0 -.14-.38 1.27 1.27 0 0 0 -.41-.25l-.72-.28a6.26 6.26 0 0 1 -.71-.35 1.71 1.71 0 0 1 -.56-.5 1.33 1.33 0 0 1 -.21-.77 1.66 1.66 0 0 1 .32-1 2.11 2.11 0 0 1 .88-.68 3.19 3.19 0 0 1 1.28-.27 3.61 3.61 0 0 1 1 .14 6.09 6.09 0 0 1 1 .42l-.59 1.2a2.64 2.64 0 0 0 -1.41-.51.9.9 0 0 0 -.55.15.45.45 0 0 0 -.2.38.46.46 0 0 0 .21.38 2.25 2.25 0 0 0 .54.27l.59.23a5.25 5.25 0 0 1 .82.37 1.55 1.55 0 0 1 .61.52 1.63 1.63 0 0 1 .2.87 1.94 1.94 0 0 1 -.32 1.13 2 2 0 0 1 -.92.71 3.83 3.83 0 0 1 -1.49.26z"/><path d="m28.27 10.09a3.73 3.73 0 0 1 -1.4-.25 2.59 2.59 0 0 1 -1-.72l.77-1.24a3 3 0 0 0 .8.62 1.82 1.82 0 0 0 .84.22 1 1 0 0 0 .4-.08.63.63 0 0 0 .32-.23.62.62 0 0 0 .1-.36.52.52 0 0 0 -.14-.38 1.27 1.27 0 0 0 -.41-.25l-.71-.3a6.26 6.26 0 0 1 -.71-.35 1.71 1.71 0 0 1 -.56-.5 1.33 1.33 0 0 1 -.21-.77 1.66 1.66 0 0 1 .32-1 2.11 2.11 0 0 1 .88-.68 3.19 3.19 0 0 1 1.29-.25 3.61 3.61 0 0 1 1 .14 6.09 6.09 0 0 1 1.07.42l-.68 1.2a2.64 2.64 0 0 0 -1.39-.5.9.9 0 0 0 -.55.15.45.45 0 0 0 -.2.38.46.46 0 0 0 .21.38 2.25 2.25 0 0 0 .52.28l.59.23a5.25 5.25 0 0 1 .82.37 1.55 1.55 0 0 1 .56.53 1.63 1.63 0 0 1 .2.85 1.94 1.94 0 0 1 -.32 1.13 2 2 0 0 1 -.92.71 3.83 3.83 0 0 1 -1.49.25z"/><path d="m33.24 2.48a1.06 1.06 0 0 1 -.55-.15 1.12 1.12 0 0 1 -.4-.4 1.06 1.06 0 0 1 -.15-.6 1 1 0 0 1 .15-.55 1.13 1.13 0 0 1 .4-.39 1.06 1.06 0 0 1 .55-.06 1 1 0 0 1 .55.15 1.12 1.12 0 0 1 .39.39 1 1 0 0 1 .15.55 1.08 1.08 0 0 1 -.15.55 1.11 1.11 0 0 1 -.39.4 1 1 0 0 1 -.55.11zm-.92 7.42v-6.15h1.84v6.14z"/><path d="m38 9.9-3.27-6.15h2.17l1.67 3.71 1.67-3.71h2.17l-3.23 6.14z"/><path d="m46 10.09a3.68 3.68 0 0 1 -1.79-.43 3.32 3.32 0 0 1 -1.21-1.17 3.08 3.08 0 0 1 -.46-1.67 3.15 3.15 0 0 1 .26-1.28 3.22 3.22 0 0 1 .73-1 3.39 3.39 0 0 1 1.09-.7 3.54 3.54 0 0 1 1.34-.25 3.43 3.43 0 0 1 1.64.41 2.88 2.88 0 0 1 1.13 1.1 3.27 3.27 0 0 1 .4 1.65v.35h-4.75a1.53 1.53 0 0 0 .21.82 1.45 1.45 0 0 0 .6.54 1.94 1.94 0 0 0 .89.2 1.86 1.86 0 0 0 .85-.19 2.3 2.3 0 0 0 .71-.59l1.36.63a3 3 0 0 1 -1.22 1.16 3.71 3.71 0 0 1 -1.78.42zm-1.54-4h2.84a1.38 1.38 0 0 0 -.3-.66 1.28 1.28 0 0 0 -.5-.4 1.6 1.6 0 0 0 -.68-.14 1.7 1.7 0 0 0 -.71.14 1.2 1.2 0 0 0 -.49.4 1.28 1.28 0 0 0 -.18.62z"/><path d="m51.78 10.09a1.17 1.17 0 0 1 -.61-.16 1.2 1.2 0 0 1 -.43-.43 1.23 1.23 0 0 1 0-1.21 1.2 1.2 0 0 1 .44-.43 1.18 1.18 0 0 1 .61-.16 1.15 1.15 0 0 1 .61.16 1.24 1.24 0 0 1 .43.43 1.21 1.21 0 0 1 0 1.21 1.23 1.23 0 0 1 -.43.43 1.15 1.15 0 0 1 -.62.16z"/></g></svg>